HIERARCHY
ROOT Hips
{
	OFFSET 0.0000 0.0000 0.0000
	CHANNELS 6 Xposition Yposition Zposition Zrotation Xrotation Yrotation
	JOINT Ab
	{
		OFFSET -0.0000 8.0846 -0.0000
		CHANNELS 3 Zrotation Xrotation Yrotation
		JOINT Chest
		{
			OFFSET -0.0000 25.0068 -0.0000
			CHANNELS 3 Zrotation Xrotation Yrotation
			JOINT Neck
			{
				OFFSET -0.0000 25.0068 0.0000
				CHANNELS 3 Zrotation Xrotation Yrotation
				JOINT Head
				{
					OFFSET -0.0000 10.7556 0.0000
					CHANNELS 3 Zrotation Xrotation Yrotation
					End Site
					{
						OFFSET -0.0000 16.6222 0.0000
					}
				}
			}
			JOINT LeftCollar
			{
				OFFSET -0.0000 25.0068 0.0000
				CHANNELS 3 Zrotation Xrotation Yrotation
				JOINT LeftShoulder
				{
					OFFSET 19.5556 -0.0000 0.0000
					CHANNELS 3 Zrotation Xrotation Yrotation
					JOINT LeftElbow
					{
						OFFSET 27.1828 0.0000 0.0000
						CHANNELS 3 Zrotation Xrotation Yrotation
						JOINT LeftWrist
						{
							OFFSET 23.3157 0.0000 0.0000
							CHANNELS 3 Zrotation Xrotation Yrotation
							End Site
							{
								OFFSET 0.0000 -14.6667 0.0000
							}
						}
					}
				}
			}
			JOINT RightCollar
			{
				OFFSET -0.0000 25.0068 0.0000
				CHANNELS 3 Zrotation Xrotation Yrotation
				JOINT RightShoulder
				{
					OFFSET -19.5556 0.0000 0.0000
					CHANNELS 3 Zrotation Xrotation Yrotation
					JOINT RightElbow
					{
						OFFSET -27.1828 0.0000 0.0000
						CHANNELS 3 Zrotation Xrotation Yrotation
						JOINT RightWrist
						{
							OFFSET -23.3157 0.0000 0.0000
							CHANNELS 3 Zrotation Xrotation Yrotation
							End Site
							{
								OFFSET -0.0000 -14.6667 0.0000
							}
						}
					}
				}
			}
		}
	}
	JOINT LeftHip
	{
		OFFSET 11.7333 0.0000 0.0000
		CHANNELS 3 Zrotation Xrotation Yrotation
		JOINT LeftKnee
		{
			OFFSET -0.0000 -40.8688 0.0000
			CHANNELS 3 Zrotation Xrotation Yrotation
			JOINT LeftAnkle
			{
				OFFSET -0.0000 -44.4337 0.0000
				CHANNELS 3 Zrotation Xrotation Yrotation
				End Site
				{
					OFFSET -0.0000 -4.8889 16.6222
				}
			}
		}
	}
	JOINT RightHip
	{
		OFFSET -11.7333 0.0000 0.0000
		CHANNELS 3 Zrotation Xrotation Yrotation
		JOINT RightKnee
		{
			OFFSET -0.0000 -40.8688 0.0000
			CHANNELS 3 Zrotation Xrotation Yrotation
			JOINT RightAnkle
			{
				OFFSET -0.0000 -44.4337 0.0000
				CHANNELS 3 Zrotation Xrotation Yrotation
				End Site
				{
					OFFSET -0.0000 -4.8889 16.6222
				}
			}
		}
	}
}
MOTION
Frames: 21
Frame Time: 0.010000
-1.0216 88.7150 190.3034 2.3247 358.7509 177.0393 2.6823 359.6840 358.1558 358.0240 9.8873 358.3201 359.6135 343.2663 1.0909 4.4945 10.1035 0.7481 338.7844 358.2857 9.1023 299.7142 28.7666 357.4693 17.3196 353.9525 321.8787 81.8082 359.9893 339.2583 23.2319 358.9133 354.6938 55.2339 46.7545 11.1338 338.0562 353.1631 34.2865 276.1671 352.0256 21.8468 2.7443 357.3208 357.7748 359.4752 11.1578 357.1807 355.8953 350.2879 22.1638 1.1358 351.5739 359.7671 358.8043 19.8184 8.1385 357.0029 343.9892 336.9227 
-1.0510 88.7147 190.2758 2.3159 358.7500 176.9961 2.6952 359.7527 358.1722 358.0013 9.8755 358.3390 359.5422 343.2564 1.0868 4.5605 10.1131 0.7497 338.7752 358.2770 9.1887 299.7345 28.7989 357.4624 17.3023 353.9765 321.9190 82.0057 359.9082 339.4014 23.2268 358.9278 354.7575 55.0550 46.8859 11.3185 338.0050 353.1023 34.4266 276.2049 351.8579 21.6280 2.7180 357.3150 357.9358 359.4911 11.2194 357.0309 354.7344 350.0182 21.9609 1.1056 351.5866 359.8073 358.8131 19.8155 8.1504 356.7324 344.0237 336.8647 
-1.0806 88.7148 190.2541 2.3038 358.7175 176.9635 2.6883 359.7836 358.1924 357.9927 9.8878 358.3609 359.5342 343.2173 1.0637 4.5152 10.1316 0.7300 338.7682 358.2751 9.2316 299.7711 28.8306 357.4480 17.3658 353.9645 321.9010 81.7565 359.9152 339.3562 23.2236 358.9279 354.7506 54.7670 47.1099 11.6605 337.9742 353.0807 34.6180 276.0603 352.0026 21.7222 2.7005 357.2379 357.8395 359.4440 11.3483 357.0928 355.8721 350.1195 22.2292 1.0728 351.5606 359.8509 358.8267 19.8240 8.1656 356.7259 344.0144 336.8333 
-1.1092 88.7170 190.2265 2.2996 358.6953 176.9403 2.6829 359.8212 358.2227 357.9867 9.9103 358.3937 359.4759 343.1453 1.0153 4.5350 10.2028 0.6826 338.7677 358.2720 9.2366 299.8067 28.8591 357.4631 17.3723 353.9523 321.8838 81.7648 359.8852 339.3848 23.2139 358.9140 354.7257 54.5376 47.2753 11.9573 337.9107 352.9998 34.7913 276.0549 352.0302 21.6705 2.6800 357.2152 357.8398 359.4353 11.3948 357.0803 354.9702 349.9030 22.0781 1.0525 351.5632 359.8777 358.8330 19.8024 8.1344 356.7444 344.0051 336.8587 
-1.1373 88.7174 190.1974 2.3004 358.6639 176.9189 2.6605 359.8381 358.2211 358.0419 9.9305 358.3874 359.3606 343.1521 0.9770 4.5927 10.2071 0.6589 338.7524 358.2742 9.1855 299.7765 28.6685 357.5492 17.2928 353.9869 321.8274 81.7080 359.8528 339.2529 23.1832 358.9308 354.7530 54.3214 47.4292 12.2144 337.8604 352.9513 34.9377 276.1040 351.9177 21.6464 2.6719 357.1891 357.8210 359.4096 11.4334 357.0650 355.7932 349.9817 22.2858 1.0376 351.5611 359.8962 358.8348 19.7767 8.1115 356.7607 343.9926 336.8824 
-1.1693 88.7183 190.1655 2.2989 358.6449 176.8998 2.6284 359.8312 358.1477 358.1904 9.9740 358.3023 359.0522 343.2622 0.9793 4.7829 10.0984 0.6987 338.6709 358.2716 9.1743 299.7165 28.4245 357.6211 17.2163 354.0331 321.8016 81.6695 359.8259 339.1441 23.1113 358.9571 354.8717 53.9630 47.6312 12.5629 337.8449 352.9381 35.0245 275.9797 351.8778 21.5386 2.6550 357.1875 357.8218 359.3943 11.4467 357.0558 355.1661 349.8298 22.1845 1.0138 351.5772 359.9257 358.8408 19.7480 8.1290 356.7904 343.9689 336.8598 
-1.2007 88.7204 190.1328 2.2962 358.6058 176.8809 2.5833 359.8911 358.2070 358.2355 9.9334 358.3587 359.0732 343.2228 1.0017 4.7071 10.1407 0.7211 338.6442 358.2478 9.2224 299.7354 28.3735 357.6593 17.2222 354.0088 321.7465 81.4984 359.8695 339.0382 23.0863 358.9704 354.9019 53.7673 47.8502 12.8282 337.7164 352.8558 35.1076 275.8388 351.5833 21.6333 2.6384 357.1655 357.8210 359.3782 11.4659 357.0612 355.7544 349.9042 22.3077 0.9907 351.5726 359.9670 358.8565 19.7198 8.1173 356.7791 343.9512 336.8389 
-1.2349 88.7221 190.1010 2.2961 358.5543 176.8489 2.5233 359.9889 358.2943 358.3072 9.8094 358.4405 359.0954 343.2432 0.9404 4.6272 10.1429 0.6585 338.6139 358.2563 9.1550 299.7286 28.2668 357.7634 17.0858 354.0582 321.7484 81.6183 359.8140 338.9129 23.0621 358.9479 354.8031 53.6227 48.1193 13.0785 337.4981 352.7543 35.1025 275.6709 351.1528 21.7599 2.6277 357.1338 357.7994 359.3495 11.4849 357.0682 355.3893 349.7856 22.2777 0.9702 351.5456 0.0001 358.8607 19.7099 8.1326 356.7642 343.9314 336.8261 
-1.2708 88.7234 190.0636 2.2982 358.5100 176.8227 2.5167 0.0076 358.3198 358.3341 9.8560 358.4641 359.0391 343.1735 0.8990 4.6673 10.1516 0.6251 338.6279 358.2652 9.1373 299.7116 28.2987 357.7332 17.0989 354.0345 321.7834 81.6438 359.7683 338.9177 23.0434 358.9342 354.7143 53.2916 48.2822 13.4931 337.4103 352.7103 35.3070 275.7229 351.2925 21.7930 2.6160 357.1045 357.7635 359.3219 11.5138 357.0839 355.7330 349.7977 22.3839 0.9527 351.5345 0.0305 358.8619 19.6884 8.1329 356.8653 343.8645 336.8416 
-1.3094 88.7252 190.0251 2.2903 358.4587 176.7987 2.4928 0.0257 358.3472 358.3810 9.8989 358.4883 358.9786 343.0926 0.8868 4.6768 10.1774 0.6210 338.6343 358.2586 9.1847 299.6962 28.4123 357.6796 17.1961 354.0000 321.8449 81.5573 359.7148 338.9849 23.0034 358.9229 354.6694 52.9806 48.4411 13.8920 337.3073 352.6394 35.4956 275.8381 351.2878 21.8670 2.5915 357.0709 357.7213 359.2990 11.5397 357.0814 355.6507 349.7199 22.4179 0.9215 351.5087 0.0543 358.8656 19.6830 8.1465 356.9156 343.8042 336.8365 
-1.3494 88.7288 189.9842 2.2820 358.4016 176.7705 2.4869 0.0664 358.3634 358.3723 9.8611 358.5055 358.9746 343.0603 0.8805 4.6349 10.2434 0.6153 338.6416 358.2553 9.2029 299.6773 28.3409 357.7039 17.1925 354.0097 321.8694 81.4490 359.6985 338.9124 23.0126 358.9133 354.6778 52.7900 48.5859 14.1326 337.1993 352.5638 35.6642 275.8206 351.1779 21.8635 2.5648 357.0408 357.7071 359.2837 11.5539 357.0596 355.6723 349.6415 22.4613 0.8897 351.4799 0.1031 358.8762 19.6673 8.0570 356.9659 343.7602 336.9090 
-1.3949 88.7315 189.9462 2.2639 358.3196 176.7554 2.4674 0.0809 358.3717 358.3697 9.8324 358.5143 358.9691 343.0075 0.8766 4.5971 10.3442 0.6112 338.6519 358.2689 9.1816 299.6427 28.1180 357.7653 17.0954 354.0462 321.8093 81.3339 359.7384 338.7294 23.0114 358.9098 354.7118 52.6181 48.7378 14.3536 337.1000 352.4991 35.8686 275.5593 351.3036 21.8284 2.5237 356.9692 357.6750 359.2655 11.5904 357.0656 355.8294 349.6044 22.5182 0.8428 351.4242 0.1325 358.8848 19.6535 7.9845 357.0404 343.7011 336.9753 
-1.4455 88.7334 189.9042 2.2474 358.2400 176.7347 2.4473 0.0998 358.3853 358.3911 9.8111 358.5262 358.8761 342.9543 0.8628 4.6548 10.4100 0.6021 338.6474 358.2713 9.1928 299.6114 27.9862 357.8066 17.0530 354.0557 321.7524 81.2658 359.7510 338.6561 23.0089 358.9164 354.7056 52.2852 48.8698 14.7075 337.0682 352.4525 36.1006 275.4590 351.3824 21.7569 2.4786 356.8992 357.6250 359.2488 11.6312 357.0815 355.6450 349.4912 22.5273 0.7914 351.3703 0.1502 358.8912 19.6513 7.9927 357.2397 343.6090 337.0233 
-1.5065 88.7334 189.8547 2.2241 358.1862 176.7059 2.4195 0.1496 358.4233 358.3956 9.7817 358.5646 358.8406 342.9081 0.8365 4.6554 10.4544 0.5731 338.6444 358.2580 9.2204 299.6102 28.0303 357.8274 17.1046 354.0421 321.7857 81.1677 359.6745 338.7054 23.0045 358.9168 354.6894 51.9972 48.9904 15.0369 336.9951 352.3744 36.3360 275.4518 351.5500 21.6846 2.4094 356.8666 357.5872 359.2543 11.6618 357.0811 356.0167 349.4786 22.6465 0.7137 351.3425 0.1709 358.9215 19.6568 7.9977 357.2337 343.5338 337.0139 
-1.5708 88.7328 189.8041 2.1960 358.1152 176.6829 2.4067 0.1880 358.4443 358.3736 9.7365 358.5878 358.8111 342.8666 0.8133 4.6639 10.5355 0.5461 338.6433 358.2535 9.2564 299.6162 28.1800 357.8470 17.2030 354.0136 321.8839 81.1076 359.5597 338.8475 23.0180 358.8954 354.5929 51.5328 49.2759 15.5939 336.8737 352.2915 36.4019 275.5204 351.5670 21.5344 2.3424 356.8117 357.5167 359.2312 11.7033 357.0996 355.6338 349.3314 22.6311 0.6301 351.2919 0.1721 358.9438 19.6769 8.0458 357.2205 343.4354 336.9670 
-1.6319 88.7338 189.7509 2.1804 358.0396 176.6843 2.3884 0.2117 358.4554 358.3721 9.7243 358.5987 358.8165 342.8041 0.8042 4.6523 10.5956 0.5466 338.6473 358.2258 9.2622 299.5915 28.1582 357.8985 17.2404 354.0107 321.8839 81.1287 359.4863 338.9490 23.0182 358.9088 354.5710 51.2360 49.3912 15.9607 336.8283 352.2361 36.5643 275.5802 351.4322 21.4590 2.2896 356.7414 357.4298 359.2086 11.7620 357.1094 356.2883 349.3785 22.8118 0.5637 351.2599 0.1979 358.9570 19.6470 8.1450 357.3455 343.3559 336.8913 
-1.6837 88.7375 189.6917 2.1904 357.9524 176.6959 2.3809 0.2392 358.4609 358.3714 9.6785 358.6038 358.8896 342.7582 0.7972 4.5650 10.6538 0.5646 338.6468 358.2375 9.2715 299.5988 28.1371 357.9620 17.2201 354.0202 321.8917 81.0752 359.4528 339.0146 23.0328 358.9105 354.5942 51.0732 49.5080 16.1572 336.6460 352.1390 36.7644 275.8076 351.1863 21.3807 2.2768 356.6643 357.3731 359.1806 11.8234 357.0940 355.6889 349.1749 22.7255 0.5371 351.2226 0.2359 359.0003 19.6666 7.9658 357.6698 343.0910 337.0294 
-1.7642 88.7336 189.6279 2.1660 357.8887 176.6633 2.3812 0.2823 358.4829 358.3448 9.6733 358.6280 358.8764 342.6614 0.8131 4.5687 10.7165 0.5609 338.6440 358.2315 9.3024 299.6025 28.0982 357.9976 17.2214 354.0152 321.8037 81.0404 359.4725 339.1065 23.0138 358.9054 354.6087 50.8034 49.6448 16.4861 336.5541 352.0729 36.9630 275.7880 351.1657 21.3358 2.1933 356.6133 357.3442 359.1799 11.8911 357.1211 356.5025 349.2190 22.9300 0.4444 351.1975 0.2813 359.0582 19.6935 7.8089 358.0267 342.7281 337.1152 
-1.8368 88.7335 189.5700 2.1435 357.7793 176.6689 2.3808 0.3017 358.4733 358.3029 9.6201 358.6218 358.8781 342.6484 0.8210 4.5889 10.6843 0.5610 338.6561 358.2189 9.3307 299.6106 28.1105 358.0514 17.2292 353.9994 321.7603 80.9876 359.4501 339.1811 23.0593 358.8890 354.4164 49.8932 50.1862 17.5493 336.5232 352.0737 36.6900 275.5571 351.1026 20.9864 2.1298 356.5073 357.2708 359.1564 11.9579 357.1002 355.6843 348.9483 22.8360 0.3647 351.1268 0.3166 359.1109 19.7597 7.5287 358.0982 342.4502 337.3246 
-1.9167 88.7330 189.5113 2.1182 357.6554 176.6701 2.3555 0.3107 358.4826 358.3055 9.5737 358.6310 358.8095 342.5546 0.7947 4.6098 10.7810 0.5407 338.6519 358.2325 9.3282 299.5910 27.9191 358.1275 17.0896 354.0527 321.6955 81.0015 359.4088 339.0598 23.0519 358.8507 354.3750 49.5037 50.3518 18.0051 336.4819 352.0499 36.8410 275.4903 351.1181 20.8930 2.0580 356.3769 357.2087 359.1343 12.0555 357.0673 356.6122 348.9789 23.1662 0.2739 351.0449 0.3666 359.1604 19.7537 7.5073 358.3861 342.2643 337.3628 
-1.9437 88.7449 189.4250 2.1530 357.6473 176.5787 2.2693 0.4102 358.5549 358.3773 9.5609 358.6996 358.7962 342.4917 0.7932 4.6534 10.8435 0.5449 338.6418 358.2204 9.4311 299.6340 28.1644 358.1094 17.1988 353.9803 321.7972 81.1253 359.2140 339.2615 23.1169 358.8703 354.3583 49.2883 50.0215 18.2590 336.8092 352.1763 37.2237 275.4836 351.2059 21.2595 2.1132 356.4137 357.4459 359.1014 12.1018 357.1003 355.6659 348.6972 22.7756 0.3315 351.1176 0.6098 359.1533 19.6978 7.3729 358.5077 342.1478 337.3739 
